# xmcd
#
# Track frame offsets:
# 150
# 16353
# 25208
# 38109
# 49635
# 64273
# 75561
# 90750
# 108639
# 123237
#
# Disc length: 1892 seconds
#
#
# Revision: 0
# Processed by: cddbd v1.5.2PL0 Copyright (c) Steve Scherf et al.
# Submitted via: FreeRIP 2.945 
#
DISCID=7107620a
DTITLE=Christmas with the Country Superstars - Merry Christmas Darlin'
DYEAR=2004
DGENRE=Christmas
TTITLE0=Merry Christmas Darlin
TTITLE1=Let It Snow
TTITLE2=Away In A Manger
TTITLE3=All I Want For Christmas
TTITLE4=Wrap Me In Your Love
TTITLE5=Sleigh ride
TTITLE6=Winter Wonderland
TTITLE7=It Came Upon A Midnight Clear
TTITLE8=Only 364 Shoppin Days Til Christmas
TTITLE9=O Holy Night
EXTD=
EXTT0=
EXTT1=
EXTT2=
EXTT3=
EXTT4=
EXTT5=
EXTT6=
EXTT7=
EXTT8=
EXTT9=
PLAYORDER=
